<?xml version="1.0" encoding="utf-8"?>
<svg version="1.1" id="Layer_1" x="0px" y="0px" viewBox="0 0 425.2 240" style="enable-background:new 0 0 425.2 425.2;" xmlns="http://www.w3.org/2000/svg">
  <style type="text/css">
	.st0{fill-rule:evenodd;clip-rule:evenodd;fill:#4A4A49;}
	.st1{fill:#FFFFFF;}
	.st2{fill-rule:evenodd;clip-rule:evenodd;fill:#009BA4;}
	.st3{fill-rule:evenodd;clip-rule:evenodd;}
</style>
  <g transform="matrix(1.068607, 0, 0, 1.125297, -15.184266, -118.921394)" style="">
    <polygon class="st0" points="144.69,105.8 14.75,105.68 14.75,148.53 50.01,148.53 50.01,166.1 62.72,148.53 144.69,148.65 &#9;"/>
    <g>
      <path class="st1" d="M29.1,136v-2.41h2.25v-14.4H29.1v-2.39h9.06c1.77,0,3.27,0.19,4.58,1.56c1.1,1.15,1.61,2.73,1.61,4.31 c0,1.93-0.54,3.54-2.01,4.83c-1.29,1.1-3.2,1.1-4.8,1.1h-2.52v4.99h2.82V136H29.1z M35.03,119.22v6.97h1.85 c0.99,0,2.09,0,2.84-0.81c0.67-0.72,0.86-1.74,0.86-2.71c0-0.94-0.24-2.06-0.97-2.68c-0.85-0.78-1.66-0.78-2.73-0.78H35.03z"/>
      <path class="st1" d="M50.81,124.77c0.56-2.49,2.26-3.51,4.75-3.27v3.49c-0.4-0.11-0.83-0.21-1.26-0.21 c-1.32,0-2.47,0.81-2.93,2.01c-0.35,0.97-0.35,2.28-0.35,3.27v3.68h2.27V136h-7.72v-2.28h1.88v-9.71h-1.88v-2.28h5.22V124.77z"/>
      <path class="st1" d="M59.59,129.59c-0.03,2.04,0.83,4.4,3.27,4.4c1.42,0,2.41-0.97,2.65-2.33h3.4c-0.24,3.14-3.35,4.66-6.25,4.66 c-0.91,0-2.15-0.29-2.98-0.67c-0.94-0.43-1.55-0.97-2.17-1.8c-1.12-1.45-1.55-3.32-1.55-5.12c0-3.92,2.22-7.35,6.54-7.35 c1.9,0,3.7,0.51,5.01,1.9c1.16,1.23,1.5,3.25,1.59,4.85c0.02,0.43,0.08,0.83,0.02,1.23c0,0.08-0.02,0.14-0.02,0.21H59.59z M65.51,127.53c-0.03-1.61-0.67-3.92-2.71-3.92c-2.25,0-2.97,2.04-3.13,3.92H65.51z"/>
      <path class="st1" d="M74.99,124.07c0.91-1.82,2.41-2.68,4.48-2.68c1.9,0,3.3,0.72,3.96,2.68c0.78-1.82,2.31-2.68,4.16-2.68 c2.04,0,3.49,0.94,4.19,2.68c0.35,0.89,0.24,1.53,0.24,2.22v7.43h1.74V136h-7v-2.28h1.69v-6.35c0-1.45-0.18-3.35-2.12-3.35 c-1.05,0-1.79,0.48-2.25,1.45c-0.46,0.94-0.46,1.74-0.46,2.76v5.5h1.66V136h-6.86v-2.28h1.64v-6.6c0-0.8,0-1.42-0.34-2.17 c-0.27-0.56-0.97-0.94-1.58-0.94c-1.5,0-2.31,0.91-2.71,2.25c-0.19,0.7-0.19,1.37-0.19,2.09v5.37h1.72V136h-7.16v-2.28h1.88v-9.71 h-1.88v-2.28h5.2V124.07z"/>
      <path class="st1" d="M94.76,136v-2.28h1.9v-9.71h-1.9v-2.28h5.47v11.99h1.66V136L94.76,136z M100.23,116.3v3.27h-3.57v-3.27 H100.23z"/>
      <path class="st1" d="M106.08,129.59c-0.03,2.04,0.83,4.4,3.26,4.4c1.42,0,2.41-0.97,2.66-2.33h3.4c-0.24,3.14-3.35,4.67-6.25,4.67 c-0.91,0-2.15-0.3-2.97-0.67c-0.94-0.43-1.55-0.97-2.17-1.8c-1.13-1.45-1.56-3.32-1.56-5.12c0-3.92,2.22-7.35,6.54-7.35 c1.9,0,3.7,0.51,5.01,1.9c1.15,1.24,1.5,3.25,1.58,4.85c0.03,0.43,0.08,0.83,0.03,1.23c0,0.08-0.03,0.14-0.03,0.21H106.08z M112.01,127.53c-0.03-1.61-0.67-3.92-2.71-3.92c-2.25,0-2.98,2.04-3.14,3.92H112.01z"/>
      <path class="st1" d="M121.49,124.77c0.56-2.49,2.25-3.51,4.74-3.27v3.49c-0.4-0.11-0.83-0.22-1.26-0.22 c-1.32,0-2.46,0.81-2.92,2.01c-0.35,0.97-0.35,2.28-0.35,3.27v3.67h2.28V136h-7.72v-2.28h1.88v-9.71h-1.88v-2.28h5.23V124.77z"/>
      <path class="st1" d="M126.69,136v-3.54h3.65V136H126.69z"/>
    </g>
    <rect x="14.75" y="166.1" class="st2" width="396.82" height="76.45"/>
    <rect x="14.75" y="242.56" class="st3" width="216.37" height="76.45"/>
    <g>
      <path class="st1" d="M66.4,193.33c-4.38-2.11-7.44-3.37-12.05-3.37c-7.05,0-12.06,4.54-12.06,13.93c0,8.14,3.6,14.95,12.6,14.95 c4.23,0,7.91-1.25,12.13-3.76l4.62,10.33c-5.17,3.44-10.8,5.4-18.08,5.4c-18,0-25.6-11.43-25.6-26.38 c0-15.26,8.85-26.61,26.54-26.61c6.97,0,13.15,2.27,16.59,4.77L66.4,193.33z"/>
      <path class="st1" d="M105.23,179.16h13.62v50.64h-13.62v-18.63H90.12v18.63H76.5v-50.64h13.62v19.41h15.11V179.16z"/>
      <path class="st1" d="M142.95,211.57h-2.58v18.24h-13.7v-50.64h19.8c9.16,0,17.46,3.13,17.46,15.26c0,6.42-3.05,11.11-7.83,14.25 l12.13,21.14h-15.03L142.95,211.57z M143.89,201.39c3.6,0,5.48-2.03,5.48-5.87c0-4.15-2.03-5.4-5.4-5.4h-3.68v11.27H143.89z"/>
      <path class="st1" d="M186.39,229.81h-13.7v-50.64h13.7V229.81z"/>
      <path class="st1" d="M224.98,192.71c-3.6-1.57-9.47-2.74-12.52-2.74c-3.29,0-4.62,1.41-4.62,3.37c0,2.35,2.27,3.21,6.5,4.62 c8.22,2.66,15.26,5.48,15.26,15.66c0,11.43-7.83,17.14-19.1,17.14c-7.28,0-15.18-2.27-18.55-4.38l3.6-11.35 c3.68,1.8,10.41,3.84,14.87,3.84c3.44,0,5.01-1.64,5.01-4.15c0-3.13-2.35-3.99-6.1-5.09c-9.39-2.74-15.66-5.72-15.66-15.66 c0-10.72,8.3-15.73,18.71-15.73c5.01,0,11.58,1.1,15.97,3.21L224.98,192.71z"/>
      <path class="st1" d="M231.63,191.06v-11.9h42.58v11.9h-14.56v38.75h-13.54v-38.75H231.63z"/>
      <path class="st1" d="M293.39,229.81h-13.7v-50.64h13.7V229.81z"/>
      <path class="st1" d="M331.35,179.16l16.13,50.64h-14.72l-3.37-10.49h-14.09l-3.44,10.49h-13.93l13.62-42.27l2.43-8.38H331.35z M317.73,208.28h9.39l-4.07-17.14h-0.55L317.73,208.28z"/>
      <path class="st1" d="M351.54,229.81v-50.64h16.52l13.46,29.35l0.55-0.08l-0.7-11.58v-17.69h13.07v50.64h-14.32l-15.26-30.21 l-0.47,0.08l0.39,11.74v18.4H351.54z"/>
    </g>
    <g>
      <path class="st1" d="M29.46,305.13v-48.7h15.88l12.95,28.22l0.53-0.07l-0.68-11.14v-17.01h12.57v48.7H56.94l-14.68-29.05 l-0.45,0.07l0.38,11.29v17.69H29.46z"/>
      <path class="st1" d="M78.23,256.43h32.06v11.44H91.33v7h15.73v11.29H91.26v7.45h20.4v11.52H78.23V256.43z"/>
      <path class="st1" d="M137.47,256.43h13.25l7.38,31.84h0.6l5.87-31.84h12.64l-11.21,48.7h-14.45l-5.8-22.88h-0.45l-5.12,22.88 h-14.22l-11.74-48.7h13.17l7,31.69h0.6l5.42-21.53L137.47,256.43z"/>
      <path class="st1" d="M210.62,269.45c-3.46-1.51-9.11-2.63-12.04-2.63c-3.16,0-4.44,1.35-4.44,3.24c0,2.26,2.18,3.09,6.25,4.44 c7.9,2.56,14.68,5.27,14.68,15.05c0,10.99-7.53,16.48-18.36,16.48c-7,0-14.6-2.18-17.84-4.21l3.46-10.91 c3.54,1.73,10.01,3.69,14.3,3.69c3.31,0,4.82-1.58,4.82-3.99c0-3.01-2.26-3.84-5.87-4.89c-9.03-2.64-15.05-5.49-15.05-15.05 c0-10.31,7.98-15.13,17.99-15.13c4.82,0,11.14,1.05,15.35,3.09L210.62,269.45z"/>
    </g>
  </g>
</svg>